HIERARCHY
ROOT Hips
{
  OFFSET -35.2597 29.1586 114.425
  CHANNELS 6 Xposition Yposition Zposition Zrotation Xrotation Yrotation
  JOINT LeftUpLeg
  {
    OFFSET 8.64259 1.95398 -2.38835
    CHANNELS 3 Zrotation Xrotation Yrotation
    JOINT LeftLeg
    {
      OFFSET 43.7702 0 0
      CHANNELS 3 Zrotation Xrotation Yrotation
      JOINT LeftFoot
      {
        OFFSET 40.6238 0 0
        CHANNELS 3 Zrotation Xrotation Yrotation
        JOINT LeftToeBase
        {
          OFFSET 12.7242 0 0
          CHANNELS 3 Zrotation Xrotation Yrotation
          End Site
          {
            OFFSET 0 0 0
          }
        }
      }
    }
  }
  JOINT RightUpLeg
  {
    OFFSET -8.2249 1.95398 -2.59336
    CHANNELS 3 Zrotation Xrotation Yrotation
    JOINT RightLeg
    {
      OFFSET 43.5653 0 0
      CHANNELS 3 Zrotation Xrotation Yrotation
      JOINT RightFoot
      {
        OFFSET 40.6238 0 0
        CHANNELS 3 Zrotation Xrotation Yrotation
        JOINT RightToeBase
        {
          OFFSET 12.7242 0 0
          CHANNELS 3 Zrotation Xrotation Yrotation
          End Site
          {
            OFFSET 0 0 0
          }
        }
      }
    }
  }
  JOINT Spine
  {
    OFFSET 0.165834 0.87714 6.61349
    CHANNELS 3 Zrotation Xrotation Yrotation
    JOINT Spine1
    {
      OFFSET 7.38963 1.71661e-005 0
      CHANNELS 3 Zrotation Xrotation Yrotation
      JOINT Spine2
      {
        OFFSET 11.9445 1.14441e-005 0
        CHANNELS 3 Zrotation Xrotation Yrotation
        JOINT Spine3
        {
          OFFSET 14.7254 4.19617e-005 0
          CHANNELS 3 Zrotation Xrotation Yrotation
          JOINT Spine4
          {
            OFFSET 10.9679 0 0
            CHANNELS 3 Zrotation Xrotation Yrotation
            JOINT RightShoulder
            {
              OFFSET 2.46616 -1.6653 3.69651
              CHANNELS 3 Zrotation Xrotation Yrotation
              JOINT RightArm
              {
                OFFSET 13.0012 0 0
                CHANNELS 3 Zrotation Xrotation Yrotation
                JOINT RightForeArm
                {
                  OFFSET 28.7848 1.62311e-005 0
                  CHANNELS 3 Zrotation Xrotation Yrotation
                  JOINT RightHand
                  {
                    OFFSET 26.5688 1.62095e-005 0
                    CHANNELS 3 Zrotation Xrotation Yrotation
                    End Site
                    {
                      OFFSET 0 0 0
                    }
                  }
                }
              }
            }
            JOINT LeftShoulder
            {
              OFFSET 2.38034 -1.29275 -3.7523
              CHANNELS 3 Zrotation Xrotation Yrotation
              JOINT LeftArm
              {
                OFFSET 16.3182 6.07031e-005 0
                CHANNELS 3 Zrotation Xrotation Yrotation
                JOINT LeftForeArm
                {
                  OFFSET 27.0901 0 0
                  CHANNELS 3 Zrotation Xrotation Yrotation
                  JOINT LeftHand
                  {
                    OFFSET 24.5451 1.51738e-005 0
                    CHANNELS 3 Zrotation Xrotation Yrotation
                    End Site
                    {
                      OFFSET 0 0 0
                    }
                  }
                }
              }
            }
            JOINT Neck
            {
              OFFSET 5.0226 -0.0266342 0
              CHANNELS 3 Zrotation Xrotation Yrotation
              JOINT Head
              {
                OFFSET 6.69364 2.86102e-005 0
                CHANNELS 3 Zrotation Xrotation Yrotation
                End Site
                {
                  OFFSET 0 0 0
                }
              }
            }
          }
        }
      }
    }
  }
}
MOTION
Frames:	9
Frame Time:	0.0416667
27.0906 95.8062 -235.496 76.6162 -55.9971 84.5209 -161.513 -10.3641 117.329 -13.2071 62.4117 6.01345 52.7412 -3.69361 3.1247 57.6015 14.6063 -12.1343 162.452 34.3486 95.5183 -63.0072 2.89871 8.57112 86.1288 -10.9971 -2.11593 17.7785 1.3392 8.50292 -5.26656 7.97263 -91.673 10.8488 -11.2584 -2.2759 -0.773794 -11.3475 -1.77196 -23.6243 -10.0497 -5.58462 -3.61167 -10.0497 -5.58461 92.2814 -18.4468 -106.659 32.0589 13.3719 78.4668 -56.5993 -15.3525 -81.4798 -22.6672 12.7046 -64.6863 -82.9048 -26.7383 86.4975 -18.0659 -4.52123 -15.9424 37.9557 -8.93066 -102.345 19.746 -11.5557 -58.7487 31.6106 7.0002 -6.26769 -15.0321 9.17106 1.126 
27.0615 96.6275 -229.832 70.3412 -64.1004 79.0579 -161.041 -13.8881 114.617 -13.5135 54.9022 6.87742 46.2705 -8.27178 -0.3222 23.521 1.1098 -6.94196 167.753 37.6613 96.3939 -52.7141 -0.107997 6.64024 82.3163 -10.1597 -2.75042 19.0143 0.807347 8.74602 -4.62735 7.79126 -91.8554 11.1952 -10.0714 -2.70701 -0.438232 -10.1807 -2.25687 -23.205 -8.79016 -5.62746 -3.1923 -8.79015 -5.62745 91.645 -18.0762 -108.377 30.6975 14.2224 79.1568 -53.8232 -15.2793 -80.4217 -22.8381 12.86 -64.9057 -82.9205 -26.1003 86.3572 -18.0509 -3.26229 -12.7828 39.0385 -9.26683 -102.375 18.6788 -10.9176 -58.3545 33.2675 8.75666 -5.18197 -17.7916 10.2934 2.17967 
27.0668 96.3566 -224.586 60.3065 -74.2746 68.5008 -164.28 -20.6407 108.695 -13.9899 43.4461 4.78851 45.9192 -7.27026 -1.09205 18.2744 -2.65349 -4.60744 173.648 39.3202 97.4907 -44.2884 -4.52501 3.19287 79.7171 -10.1377 -3.25274 18.731 1.12527 8.18423 -3.66931 7.71448 -91.7606 11.3632 -8.12192 -2.69267 -0.2843 -8.23247 -2.3305 -22.9558 -6.93667 -5.01736 -2.94315 -6.93667 -5.01737 90.8892 -19.2947 -109.561 30.9191 14.041 78.166 -50.5286 -14.7201 -79.4601 -24.0752 12.7028 -61.4939 -83.2789 -27.871 85.9345 -17.9273 0.239784 -7.24049 41.1137 -10.3616 -102.894 21.3821 -11.2163 -54.0302 32.4701 10.0585 -4.03292 -17.5698 10.9928 2.38246 
27.0787 95.2736 -219.716 24.1305 -82.6862 30.497 -169.682 -21.6082 98.5471 -24.9206 32.8626 3.46087 49.3269 -5.54906 0.384462 30.5568 2.85131 -4.37121 178.743 40.4545 98.0098 -39.5154 -10.2642 -0.1959 77.9998 -10.5424 -3.22024 20.2888 0.918917 7.2454 -2.61821 7.67658 -91.5226 11.4615 -5.92018 -2.43144 -0.197748 -6.02141 -2.16779 -22.7947 -4.91586 -4.10061 -2.782 -4.91587 -4.10062 90.52 -21.8722 -109.135 30.4335 14.1578 73.548 -50.1533 -15.379 -78.7139 -26.1327 12.6553 -57.3677 -83.6451 -33.6185 86.1608 -18.8379 3.07029 -9.81031 44.0352 -6.58562 -97.9419 18.045 -10.3453 -57.3345 32.4071 11.2395 -1.33813 -16.7933 11.2031 0.840712 
27.0354 94.2334 -214.453 -35.923 -82.3554 -31.4916 -172.045 -16.8124 91.3196 -39.2258 24.7565 1.38191 51.795 -5.06488 -1.08452 33.7749 3.79341 -3.33133 -178.005 40.4902 97.924 -38.2001 -15.031 -2.28837 76.0433 -10.5769 -4.00006 18.1803 1.73981 7.13003 -1.79424 7.61865 -91.2436 11.5999 -4.1515 -2.04885 -0.0657536 -4.23763 -1.86394 -22.6254 -3.34399 -3.20232 -2.6128 -3.34399 -3.20231 89.6085 -26.499 -108.989 29.0043 15.1184 63.4567 -50.3395 -20.7081 -74.407 -32.6657 15.4552 -55.7489 -84.8534 -39.254 84.9173 -20.0078 3.48171 -10.8052 51.4256 -3.478 -94.0833 9.70691 -6.60576 -60.9304 32.7038 11.4168 0.156829 -16.8375 10.8094 0.343001 
26.8325 93.3915 -208.518 -56.4292 -80.7676 -52.9956 -170.809 -11.3623 89.7875 -52.4994 21.669 -0.211623 49.6168 -7.09725 -0.0775698 31.7056 4.5803 -7.3251 -176.935 39.8447 97.8853 -41.9439 -17.6143 -3.39274 70.8451 -7.10712 -5.01324 20.54 1.26151 6.07692 -1.26792 7.68833 -91.1801 11.4676 -3.07395 -2.03826 -0.201038 -3.16067 -1.90094 -22.742 -2.31949 -2.86779 -2.72934 -2.31949 -2.86779 89.384 -29.2556 -108.278 29.3438 14.588 57.575 -51.0059 -20.5433 -74.9295 -37.7704 15.0911 -48.337 -85.588 -45.2631 84.6532 -22.014 4.74272 -10.2845 54.5303 1.89159 -90.8827 7.85353 -5.42678 -59.3075 31.8944 11.1607 3.16903 -15.5909 9.4292 -0.519514 
26.4139 92.5655 -202.046 -62.2484 -81.2495 -58.5487 -168.332 -4.52826 92.5818 -65.5262 17.5289 -0.0392464 49.4968 -7.42254 1.34522 29.1097 3.49619 -7.17953 -177.434 38.1964 98.1666 -47.2814 -16.9002 -3.30059 68.2686 -4.94511 -3.60932 19.3571 1.64885 6.21576 -1.03776 7.7122 -91.232 11.4207 -2.63992 -2.1869 -0.249191 -2.73359 -2.06859 -22.7818 -1.86091 -2.87893 -2.76912 -1.86091 -2.87894 88.5799 -31.5289 -108.927 31.4794 12.4248 51.1084 -46.4126 -18.8979 -73.5865 -43.9582 15.1623 -42.137 -85.6545 -50.6709 85.3447 -24.766 5.30258 -7.86051 56.4373 8.10672 -85.6288 7.30678 -4.81771 -56.4986 29.6136 11.0522 5.7055 -13.4744 8.47045 -1.22836 
26.1884 91.4458 -196.047 -61.7062 -81.0932 -57.3173 -166.771 3.53266 94.2168 -77.8716 10.5219 0.967418 52.3609 -5.71669 3.18146 31.4493 5.29583 -9.23438 -178.52 37.3834 99.1987 -53.5592 -14.912 -2.61141 73.9312 -9.39692 -3.91771 21.7184 0.588126 6.742 -0.727955 7.60436 -91.3421 11.637 -2.07695 -2.45887 -0.0344358 -2.18313 -2.36513 -22.5567 -1.24232 -2.96904 -2.5441 -1.24231 -2.96904 88.7391 -32.2069 -108.355 35.653 7.92602 43.7517 -33.5576 -13.3971 -71.1359 -43.2007 15.0512 -42.601 -85.457 -53.9095 86.07 -26.8529 3.77918 -3.29545 58.2848 13.2171 -83.0204 5.58862 -3.80705 -54.112 26.6005 10.3735 7.67743 -10.6118 7.24837 -1.31842 
25.968 90.7146 -190.38 -66.6461 -81.3829 -60.8414 -166.039 13.1333 94.9425 -87.8812 5.87362 2.27531 56.0763 -3.04904 5.54911 30.4834 5.00504 -9.396 -179.789 33.741 100.639 -56.4105 -14.2061 -1.94547 78.4039 -13.012 -4.00627 20.1906 0.836029 7.56706 -0.31756 7.66177 -91.4067 11.5276 -1.28966 -2.67052 -0.145362 -1.40591 -2.61123 -22.6594 -0.427831 -2.93442 -2.6468 -0.427838 -2.93443 88.3302 -33.8845 -108.474 34.9586 6.76514 36.2536 -32.486 -12.1324 -72.2156 -42.1121 15.0898 -43.6991 -85.7215 -55.3258 85.8729 -26.9837 0.416651 7.93547 62.3921 11.6011 -85.2746 7.52599 -4.36843 -51.0343 25.3813 8.96767 8.32176 -9.03174 5.76138 -1.792 
